<mxfile host="app.diagrams.net" modified="2024-02-08T13:54:42.498Z" agent="Mozilla/5.0 (Windows NT 10.0; Win64; x64) AppleWebKit/537.36 (KHTML, like Gecko) Chrome/121.0.0.0 Safari/537.36 Edg/121.0.0.0" etag="AuUnw3ujE0TJ2WVFpoeo" version="23.1.2" type="device">
  <diagram id="ZIMl8o2ZqN2o_6AajQy1" name="Page-1">
    <mxGraphModel dx="2628" dy="938" grid="1" gridSize="10" guides="1" tooltips="1" connect="1" arrows="1" fold="1" page="1" pageScale="1" pageWidth="850" pageHeight="1100" math="0" shadow="0">
      <root>
        <mxCell id="0" />
        <mxCell id="1" parent="0" />
        <mxCell id="Kc346eFX7LDRFWcVNTVt-1" value="students" style="rounded=0;arcSize=10;whiteSpace=wrap;html=1;align=center;" parent="1" vertex="1">
          <mxGeometry x="110" y="280" width="100" height="40" as="geometry" />
        </mxCell>
        <mxCell id="Kc346eFX7LDRFWcVNTVt-2" value="Professors" style="rounded=0;arcSize=10;whiteSpace=wrap;html=1;align=center;" parent="1" vertex="1">
          <mxGeometry x="890" y="310" width="100" height="40" as="geometry" />
        </mxCell>
        <mxCell id="Kc346eFX7LDRFWcVNTVt-3" value="news" style="rounded=0;arcSize=10;whiteSpace=wrap;html=1;align=center;" parent="1" vertex="1">
          <mxGeometry x="580" y="710" width="100" height="40" as="geometry" />
        </mxCell>
        <mxCell id="Kc346eFX7LDRFWcVNTVt-4" value="groups" style="rounded=0;arcSize=10;whiteSpace=wrap;html=1;align=center;" parent="1" vertex="1">
          <mxGeometry x="-45" y="560" width="100" height="40" as="geometry" />
        </mxCell>
        <mxCell id="Kc346eFX7LDRFWcVNTVt-5" value="Lectures" style="rounded=0;arcSize=10;whiteSpace=wrap;html=1;align=center;" parent="1" vertex="1">
          <mxGeometry x="470" y="160" width="100" height="40" as="geometry" />
        </mxCell>
        <mxCell id="Kc346eFX7LDRFWcVNTVt-6" value="subjects" style="rounded=0;arcSize=10;whiteSpace=wrap;html=1;align=center;" parent="1" vertex="1">
          <mxGeometry x="710" y="560" width="100" height="40" as="geometry" />
        </mxCell>
        <mxCell id="Kc346eFX7LDRFWcVNTVt-7" value="Assign" style="shape=rhombus;perimeter=rhombusPerimeter;whiteSpace=wrap;html=1;align=center;" parent="1" vertex="1">
          <mxGeometry x="35" y="432.12" width="120" height="60" as="geometry" />
        </mxCell>
        <mxCell id="Kc346eFX7LDRFWcVNTVt-8" value="Teach" style="shape=rhombus;perimeter=rhombusPerimeter;whiteSpace=wrap;html=1;align=center;" parent="1" vertex="1">
          <mxGeometry x="830" y="436" width="100" height="50" as="geometry" />
        </mxCell>
        <mxCell id="Kc346eFX7LDRFWcVNTVt-9" value="" style="endArrow=none;html=1;rounded=0;exitX=0.5;exitY=0;exitDx=0;exitDy=0;entryX=0.5;entryY=1;entryDx=0;entryDy=0;" parent="1" source="Kc346eFX7LDRFWcVNTVt-8" target="Kc346eFX7LDRFWcVNTVt-2" edge="1">
          <mxGeometry relative="1" as="geometry">
            <mxPoint x="765" y="240" as="sourcePoint" />
            <mxPoint x="790" y="290" as="targetPoint" />
          </mxGeometry>
        </mxCell>
        <mxCell id="Kc346eFX7LDRFWcVNTVt-10" value="N" style="edgeLabel;html=1;align=center;verticalAlign=middle;resizable=0;points=[];" parent="Kc346eFX7LDRFWcVNTVt-9" vertex="1" connectable="0">
          <mxGeometry x="0.0432" y="2" relative="1" as="geometry">
            <mxPoint x="1" y="2" as="offset" />
          </mxGeometry>
        </mxCell>
        <mxCell id="Kc346eFX7LDRFWcVNTVt-11" value="" style="endArrow=none;html=1;rounded=0;exitX=0.75;exitY=0;exitDx=0;exitDy=0;entryX=0.5;entryY=1;entryDx=0;entryDy=0;" parent="1" source="Kc346eFX7LDRFWcVNTVt-6" target="Kc346eFX7LDRFWcVNTVt-8" edge="1">
          <mxGeometry relative="1" as="geometry">
            <mxPoint x="737.5" y="40" as="sourcePoint" />
            <mxPoint x="742.5" y="150" as="targetPoint" />
          </mxGeometry>
        </mxCell>
        <mxCell id="Kc346eFX7LDRFWcVNTVt-12" value="&amp;nbsp;M&amp;nbsp;" style="edgeLabel;html=1;align=center;verticalAlign=middle;resizable=0;points=[];" parent="Kc346eFX7LDRFWcVNTVt-11" vertex="1" connectable="0">
          <mxGeometry x="0.0294" y="1" relative="1" as="geometry">
            <mxPoint x="1" as="offset" />
          </mxGeometry>
        </mxCell>
        <mxCell id="Kc346eFX7LDRFWcVNTVt-13" value="Give" style="shape=rhombus;perimeter=rhombusPerimeter;whiteSpace=wrap;html=1;align=center;" parent="1" vertex="1">
          <mxGeometry x="740" y="170" width="100" height="50" as="geometry" />
        </mxCell>
        <mxCell id="Kc346eFX7LDRFWcVNTVt-14" value="" style="endArrow=none;html=1;rounded=0;entryX=0.5;entryY=0;entryDx=0;entryDy=0;exitX=1;exitY=0.5;exitDx=0;exitDy=0;" parent="1" source="Kc346eFX7LDRFWcVNTVt-13" target="Kc346eFX7LDRFWcVNTVt-2" edge="1">
          <mxGeometry relative="1" as="geometry">
            <mxPoint x="800" y="300" as="sourcePoint" />
            <mxPoint x="710" y="380" as="targetPoint" />
          </mxGeometry>
        </mxCell>
        <mxCell id="Kc346eFX7LDRFWcVNTVt-15" value="&amp;nbsp;1&amp;nbsp;" style="edgeLabel;html=1;align=center;verticalAlign=middle;resizable=0;points=[];" parent="Kc346eFX7LDRFWcVNTVt-14" vertex="1" connectable="0">
          <mxGeometry x="-0.2052" y="-1" relative="1" as="geometry">
            <mxPoint as="offset" />
          </mxGeometry>
        </mxCell>
        <mxCell id="Kc346eFX7LDRFWcVNTVt-16" value="Attend" style="shape=rhombus;perimeter=rhombusPerimeter;whiteSpace=wrap;html=1;align=center;" parent="1" vertex="1">
          <mxGeometry x="301.5" y="200" width="92.5" height="50" as="geometry" />
        </mxCell>
        <mxCell id="Kc346eFX7LDRFWcVNTVt-17" value="date" style="ellipse;whiteSpace=wrap;html=1;align=center;" parent="1" vertex="1">
          <mxGeometry x="618.04" y="660" width="80" height="30" as="geometry" />
        </mxCell>
        <mxCell id="Kc346eFX7LDRFWcVNTVt-18" value="" style="endArrow=none;html=1;rounded=0;entryX=0.337;entryY=1.017;entryDx=0;entryDy=0;exitX=0.25;exitY=0;exitDx=0;exitDy=0;entryPerimeter=0;" parent="1" source="Kc346eFX7LDRFWcVNTVt-3" target="Kc346eFX7LDRFWcVNTVt-17" edge="1">
          <mxGeometry relative="1" as="geometry">
            <mxPoint x="835.54" y="579.5" as="sourcePoint" />
            <mxPoint x="975.54" y="580" as="targetPoint" />
          </mxGeometry>
        </mxCell>
        <mxCell id="Kc346eFX7LDRFWcVNTVt-19" value="Date" style="ellipse;whiteSpace=wrap;html=1;align=center;" parent="1" vertex="1">
          <mxGeometry x="530" y="110" width="70" height="30" as="geometry" />
        </mxCell>
        <mxCell id="Kc346eFX7LDRFWcVNTVt-20" value="" style="endArrow=none;html=1;rounded=0;exitX=0.5;exitY=1;exitDx=0;exitDy=0;entryX=0.75;entryY=0;entryDx=0;entryDy=0;" parent="1" source="Kc346eFX7LDRFWcVNTVt-19" target="Kc346eFX7LDRFWcVNTVt-5" edge="1">
          <mxGeometry relative="1" as="geometry">
            <mxPoint x="180" y="689" as="sourcePoint" />
            <mxPoint x="330" y="680" as="targetPoint" />
          </mxGeometry>
        </mxCell>
        <mxCell id="Kc346eFX7LDRFWcVNTVt-21" value="presence" style="ellipse;whiteSpace=wrap;html=1;align=center;" parent="1" vertex="1">
          <mxGeometry x="344" y="140" width="80" height="30" as="geometry" />
        </mxCell>
        <mxCell id="Kc346eFX7LDRFWcVNTVt-22" value="bouns" style="ellipse;whiteSpace=wrap;html=1;align=center;" parent="1" vertex="1">
          <mxGeometry x="247.5" y="150" width="80" height="30" as="geometry" />
        </mxCell>
        <mxCell id="Kc346eFX7LDRFWcVNTVt-23" value="" style="endArrow=none;html=1;rounded=0;entryX=0.5;entryY=0;entryDx=0;entryDy=0;exitX=0.5;exitY=1;exitDx=0;exitDy=0;" parent="1" source="Kc346eFX7LDRFWcVNTVt-21" target="Kc346eFX7LDRFWcVNTVt-16" edge="1">
          <mxGeometry relative="1" as="geometry">
            <mxPoint x="397.5" y="200" as="sourcePoint" />
            <mxPoint x="-12.5" y="-90" as="targetPoint" />
          </mxGeometry>
        </mxCell>
        <mxCell id="Kc346eFX7LDRFWcVNTVt-24" value="" style="endArrow=none;html=1;rounded=0;entryX=0;entryY=0;entryDx=0;entryDy=0;exitX=0.5;exitY=1;exitDx=0;exitDy=0;" parent="1" source="Kc346eFX7LDRFWcVNTVt-22" target="Kc346eFX7LDRFWcVNTVt-16" edge="1">
          <mxGeometry relative="1" as="geometry">
            <mxPoint x="-42.5" y="40" as="sourcePoint" />
            <mxPoint x="117.5" y="40" as="targetPoint" />
          </mxGeometry>
        </mxCell>
        <mxCell id="Kc346eFX7LDRFWcVNTVt-25" value="&amp;nbsp;N&amp;nbsp;" style="endArrow=none;html=1;rounded=0;exitX=0.5;exitY=1;exitDx=0;exitDy=0;entryX=0.5;entryY=0;entryDx=0;entryDy=0;" parent="1" source="Kc346eFX7LDRFWcVNTVt-7" target="Kc346eFX7LDRFWcVNTVt-4" edge="1">
          <mxGeometry relative="1" as="geometry">
            <mxPoint x="280" y="540" as="sourcePoint" />
            <mxPoint x="440" y="540" as="targetPoint" />
          </mxGeometry>
        </mxCell>
        <mxCell id="Kc346eFX7LDRFWcVNTVt-26" value="" style="endArrow=none;html=1;rounded=0;exitX=1;exitY=0;exitDx=0;exitDy=0;entryX=0;entryY=0.5;entryDx=0;entryDy=0;" parent="1" source="Kc346eFX7LDRFWcVNTVt-1" target="Kc346eFX7LDRFWcVNTVt-16" edge="1">
          <mxGeometry relative="1" as="geometry">
            <mxPoint x="150" y="560" as="sourcePoint" />
            <mxPoint x="310" y="560" as="targetPoint" />
          </mxGeometry>
        </mxCell>
        <mxCell id="Kc346eFX7LDRFWcVNTVt-27" value="&amp;nbsp;M&amp;nbsp;" style="edgeLabel;html=1;align=center;verticalAlign=middle;resizable=0;points=[];" parent="Kc346eFX7LDRFWcVNTVt-26" vertex="1" connectable="0">
          <mxGeometry x="-0.0023" y="-4" relative="1" as="geometry">
            <mxPoint y="-4" as="offset" />
          </mxGeometry>
        </mxCell>
        <mxCell id="Kc346eFX7LDRFWcVNTVt-28" value="" style="endArrow=none;html=1;rounded=0;entryX=0;entryY=0.5;entryDx=0;entryDy=0;exitX=1;exitY=0.5;exitDx=0;exitDy=0;" parent="1" source="Kc346eFX7LDRFWcVNTVt-16" target="Kc346eFX7LDRFWcVNTVt-5" edge="1">
          <mxGeometry relative="1" as="geometry">
            <mxPoint x="480" y="240" as="sourcePoint" />
            <mxPoint x="310" y="760" as="targetPoint" />
            <Array as="points" />
          </mxGeometry>
        </mxCell>
        <mxCell id="Kc346eFX7LDRFWcVNTVt-29" value="&amp;nbsp;N&amp;nbsp;" style="edgeLabel;html=1;align=center;verticalAlign=middle;resizable=0;points=[];" parent="Kc346eFX7LDRFWcVNTVt-28" vertex="1" connectable="0">
          <mxGeometry x="-0.033" y="-3" relative="1" as="geometry">
            <mxPoint y="-3" as="offset" />
          </mxGeometry>
        </mxCell>
        <mxCell id="Kc346eFX7LDRFWcVNTVt-30" value="" style="endArrow=none;html=1;rounded=0;entryX=0.5;entryY=0;entryDx=0;entryDy=0;exitX=1;exitY=1;exitDx=0;exitDy=0;" parent="1" source="Kc346eFX7LDRFWcVNTVt-108" target="Kc346eFX7LDRFWcVNTVt-5" edge="1">
          <mxGeometry relative="1" as="geometry">
            <mxPoint x="470" y="140" as="sourcePoint" />
            <mxPoint x="510" y="320" as="targetPoint" />
          </mxGeometry>
        </mxCell>
        <mxCell id="Kc346eFX7LDRFWcVNTVt-31" value="" style="endArrow=none;html=1;rounded=0;exitX=1;exitY=0.5;exitDx=0;exitDy=0;entryX=0;entryY=0;entryDx=0;entryDy=0;" parent="1" source="Kc346eFX7LDRFWcVNTVt-7" target="Kc346eFX7LDRFWcVNTVt-6" edge="1">
          <mxGeometry relative="1" as="geometry">
            <mxPoint x="130" y="450" as="sourcePoint" />
            <mxPoint x="450" y="520" as="targetPoint" />
          </mxGeometry>
        </mxCell>
        <mxCell id="Kc346eFX7LDRFWcVNTVt-32" value="&amp;nbsp;M&amp;nbsp;" style="edgeLabel;html=1;align=center;verticalAlign=middle;resizable=0;points=[];" parent="Kc346eFX7LDRFWcVNTVt-31" connectable="0" vertex="1">
          <mxGeometry x="-0.0461" y="-4" relative="1" as="geometry">
            <mxPoint y="-4" as="offset" />
          </mxGeometry>
        </mxCell>
        <mxCell id="Kc346eFX7LDRFWcVNTVt-33" value="Instructors" style="rounded=0;arcSize=10;whiteSpace=wrap;html=1;align=center;" parent="1" vertex="1">
          <mxGeometry x="55" y="700" width="100" height="40" as="geometry" />
        </mxCell>
        <mxCell id="Kc346eFX7LDRFWcVNTVt-34" value="Teach" style="shape=rhombus;perimeter=rhombusPerimeter;whiteSpace=wrap;html=1;align=center;" parent="1" vertex="1">
          <mxGeometry x="-51.5" y="762.5" width="90" height="50" as="geometry" />
        </mxCell>
        <mxCell id="Kc346eFX7LDRFWcVNTVt-35" value="" style="endArrow=none;html=1;rounded=0;exitX=0.5;exitY=1;exitDx=0;exitDy=0;entryX=0.5;entryY=0;entryDx=0;entryDy=0;" parent="1" source="Kc346eFX7LDRFWcVNTVt-4" target="Kc346eFX7LDRFWcVNTVt-34" edge="1">
          <mxGeometry relative="1" as="geometry">
            <mxPoint x="320" y="510" as="sourcePoint" />
            <mxPoint x="480" y="510" as="targetPoint" />
          </mxGeometry>
        </mxCell>
        <mxCell id="Kc346eFX7LDRFWcVNTVt-36" value="&amp;nbsp;M&amp;nbsp;" style="edgeLabel;html=1;align=center;verticalAlign=middle;resizable=0;points=[];" parent="Kc346eFX7LDRFWcVNTVt-35" connectable="0" vertex="1">
          <mxGeometry x="0.041" relative="1" as="geometry">
            <mxPoint as="offset" />
          </mxGeometry>
        </mxCell>
        <mxCell id="Kc346eFX7LDRFWcVNTVt-37" value="" style="endArrow=none;html=1;rounded=0;exitX=0;exitY=1;exitDx=0;exitDy=0;entryX=0.689;entryY=0.223;entryDx=0;entryDy=0;entryPerimeter=0;" parent="1" source="Kc346eFX7LDRFWcVNTVt-33" target="Kc346eFX7LDRFWcVNTVt-34" edge="1">
          <mxGeometry relative="1" as="geometry">
            <mxPoint x="55.00000000000023" y="750" as="sourcePoint" />
            <mxPoint x="455" y="570" as="targetPoint" />
          </mxGeometry>
        </mxCell>
        <mxCell id="Kc346eFX7LDRFWcVNTVt-38" value="&amp;nbsp;N&amp;nbsp;" style="edgeLabel;html=1;align=center;verticalAlign=middle;resizable=0;points=[];" parent="Kc346eFX7LDRFWcVNTVt-37" connectable="0" vertex="1">
          <mxGeometry x="0.0102" y="3" relative="1" as="geometry">
            <mxPoint x="-4" y="-1" as="offset" />
          </mxGeometry>
        </mxCell>
        <mxCell id="Kc346eFX7LDRFWcVNTVt-39" value="" style="endArrow=none;html=1;rounded=0;exitX=1;exitY=0.5;exitDx=0;exitDy=0;entryX=0;entryY=1;entryDx=0;entryDy=0;" parent="1" source="Kc346eFX7LDRFWcVNTVt-34" target="Kc346eFX7LDRFWcVNTVt-6" edge="1">
          <mxGeometry relative="1" as="geometry">
            <mxPoint x="320" y="580" as="sourcePoint" />
            <mxPoint x="480" y="580" as="targetPoint" />
          </mxGeometry>
        </mxCell>
        <mxCell id="Kc346eFX7LDRFWcVNTVt-40" value="&amp;nbsp;N&amp;nbsp;" style="edgeLabel;html=1;align=center;verticalAlign=middle;resizable=0;points=[];" parent="Kc346eFX7LDRFWcVNTVt-39" connectable="0" vertex="1">
          <mxGeometry x="-0.0958" y="3" relative="1" as="geometry">
            <mxPoint y="2" as="offset" />
          </mxGeometry>
        </mxCell>
        <mxCell id="Kc346eFX7LDRFWcVNTVt-41" value="Sessions" style="rounded=0;arcSize=10;whiteSpace=wrap;html=1;align=center;" parent="1" vertex="1">
          <mxGeometry x="237.5" y="585" width="100" height="40" as="geometry" />
        </mxCell>
        <mxCell id="Kc346eFX7LDRFWcVNTVt-42" value="Give" style="shape=rhombus;perimeter=rhombusPerimeter;whiteSpace=wrap;html=1;align=center;" parent="1" vertex="1">
          <mxGeometry x="110" y="640" width="68.5" height="40" as="geometry" />
        </mxCell>
        <mxCell id="Kc346eFX7LDRFWcVNTVt-43" value="" style="endArrow=none;html=1;rounded=0;exitX=0;exitY=0.5;exitDx=0;exitDy=0;entryX=0.5;entryY=0;entryDx=0;entryDy=0;" parent="1" source="Kc346eFX7LDRFWcVNTVt-42" target="Kc346eFX7LDRFWcVNTVt-33" edge="1">
          <mxGeometry relative="1" as="geometry">
            <mxPoint x="260" y="670" as="sourcePoint" />
            <mxPoint x="160" y="720" as="targetPoint" />
          </mxGeometry>
        </mxCell>
        <mxCell id="Kc346eFX7LDRFWcVNTVt-44" value="&amp;nbsp;1&amp;nbsp;" style="edgeLabel;html=1;align=center;verticalAlign=middle;resizable=0;points=[];" parent="Kc346eFX7LDRFWcVNTVt-43" vertex="1" connectable="0">
          <mxGeometry x="-0.0742" relative="1" as="geometry">
            <mxPoint as="offset" />
          </mxGeometry>
        </mxCell>
        <mxCell id="Kc346eFX7LDRFWcVNTVt-47" value="" style="endArrow=none;html=1;rounded=0;entryX=0;entryY=0.5;entryDx=0;entryDy=0;exitX=1;exitY=0.5;exitDx=0;exitDy=0;" parent="1" source="Kc346eFX7LDRFWcVNTVt-66" target="Kc346eFX7LDRFWcVNTVt-6" edge="1">
          <mxGeometry relative="1" as="geometry">
            <mxPoint x="380" y="600" as="sourcePoint" />
            <mxPoint x="540" y="600" as="targetPoint" />
          </mxGeometry>
        </mxCell>
        <mxCell id="Kc346eFX7LDRFWcVNTVt-48" value="&amp;nbsp;1&amp;nbsp;" style="edgeLabel;html=1;align=center;verticalAlign=middle;resizable=0;points=[];" parent="Kc346eFX7LDRFWcVNTVt-47" vertex="1" connectable="0">
          <mxGeometry x="-0.057" relative="1" as="geometry">
            <mxPoint as="offset" />
          </mxGeometry>
        </mxCell>
        <mxCell id="Kc346eFX7LDRFWcVNTVt-49" value="Attend" style="shape=rhombus;perimeter=rhombusPerimeter;whiteSpace=wrap;html=1;align=center;" parent="1" vertex="1">
          <mxGeometry x="238.75" y="420" width="97.5" height="50" as="geometry" />
        </mxCell>
        <mxCell id="Kc346eFX7LDRFWcVNTVt-50" value="presence" style="ellipse;whiteSpace=wrap;html=1;align=center;" parent="1" vertex="1">
          <mxGeometry x="344" y="410" width="80" height="30" as="geometry" />
        </mxCell>
        <mxCell id="Kc346eFX7LDRFWcVNTVt-51" value="bouns" style="ellipse;whiteSpace=wrap;html=1;align=center;" parent="1" vertex="1">
          <mxGeometry x="258.75" y="380" width="57.5" height="30" as="geometry" />
        </mxCell>
        <mxCell id="Kc346eFX7LDRFWcVNTVt-52" value="" style="endArrow=none;html=1;rounded=0;entryX=1;entryY=0.5;entryDx=0;entryDy=0;exitX=0;exitY=0.5;exitDx=0;exitDy=0;" parent="1" source="Kc346eFX7LDRFWcVNTVt-50" target="Kc346eFX7LDRFWcVNTVt-49" edge="1">
          <mxGeometry relative="1" as="geometry">
            <mxPoint x="407.5" y="440" as="sourcePoint" />
            <mxPoint x="-2.5" y="150" as="targetPoint" />
          </mxGeometry>
        </mxCell>
        <mxCell id="Kc346eFX7LDRFWcVNTVt-53" value="" style="endArrow=none;html=1;rounded=0;entryX=0.5;entryY=0;entryDx=0;entryDy=0;exitX=0.5;exitY=1;exitDx=0;exitDy=0;" parent="1" source="Kc346eFX7LDRFWcVNTVt-51" target="Kc346eFX7LDRFWcVNTVt-49" edge="1">
          <mxGeometry relative="1" as="geometry">
            <mxPoint x="-32.5" y="280" as="sourcePoint" />
            <mxPoint x="127.5" y="280" as="targetPoint" />
          </mxGeometry>
        </mxCell>
        <mxCell id="Kc346eFX7LDRFWcVNTVt-54" value="" style="endArrow=none;html=1;rounded=0;exitX=1;exitY=1;exitDx=0;exitDy=0;entryX=0;entryY=0.5;entryDx=0;entryDy=0;" parent="1" source="Kc346eFX7LDRFWcVNTVt-1" target="Kc346eFX7LDRFWcVNTVt-49" edge="1">
          <mxGeometry relative="1" as="geometry">
            <mxPoint x="220" y="520" as="sourcePoint" />
            <mxPoint x="320" y="800" as="targetPoint" />
          </mxGeometry>
        </mxCell>
        <mxCell id="Kc346eFX7LDRFWcVNTVt-55" value="M" style="edgeLabel;html=1;align=center;verticalAlign=middle;resizable=0;points=[];" parent="Kc346eFX7LDRFWcVNTVt-54" vertex="1" connectable="0">
          <mxGeometry x="-0.0023" y="-4" relative="1" as="geometry">
            <mxPoint x="3" y="-4" as="offset" />
          </mxGeometry>
        </mxCell>
        <mxCell id="Kc346eFX7LDRFWcVNTVt-56" value="" style="endArrow=none;html=1;rounded=0;entryX=0.5;entryY=0;entryDx=0;entryDy=0;exitX=0.5;exitY=1;exitDx=0;exitDy=0;jumpStyle=arc;jumpSize=10;" parent="1" source="Kc346eFX7LDRFWcVNTVt-49" target="Kc346eFX7LDRFWcVNTVt-41" edge="1">
          <mxGeometry relative="1" as="geometry">
            <mxPoint x="490" y="480" as="sourcePoint" />
            <mxPoint x="500" y="410" as="targetPoint" />
            <Array as="points" />
          </mxGeometry>
        </mxCell>
        <mxCell id="Kc346eFX7LDRFWcVNTVt-57" value="&amp;nbsp;N&amp;nbsp;" style="edgeLabel;html=1;align=center;verticalAlign=middle;resizable=0;points=[];" parent="Kc346eFX7LDRFWcVNTVt-56" connectable="0" vertex="1">
          <mxGeometry x="0.2332" relative="1" as="geometry">
            <mxPoint x="-1" as="offset" />
          </mxGeometry>
        </mxCell>
        <mxCell id="Kc346eFX7LDRFWcVNTVt-58" value="" style="shape=link;html=1;rounded=0;exitX=1.01;exitY=0.598;exitDx=0;exitDy=0;exitPerimeter=0;entryX=0.014;entryY=0.506;entryDx=0;entryDy=0;entryPerimeter=0;" parent="1" source="Kc346eFX7LDRFWcVNTVt-5" target="Kc346eFX7LDRFWcVNTVt-13" edge="1">
          <mxGeometry relative="1" as="geometry">
            <mxPoint x="630" y="260" as="sourcePoint" />
            <mxPoint x="780" y="205" as="targetPoint" />
          </mxGeometry>
        </mxCell>
        <mxCell id="Kc346eFX7LDRFWcVNTVt-59" value="&amp;nbsp;M&amp;nbsp;" style="edgeLabel;html=1;align=center;verticalAlign=middle;resizable=0;points=[];" parent="Kc346eFX7LDRFWcVNTVt-58" connectable="0" vertex="1">
          <mxGeometry x="-0.0547" y="-4" relative="1" as="geometry">
            <mxPoint x="4" y="-3" as="offset" />
          </mxGeometry>
        </mxCell>
        <mxCell id="Kc346eFX7LDRFWcVNTVt-60" value="" style="shape=link;html=1;rounded=0;exitX=1;exitY=0;exitDx=0;exitDy=0;entryX=0;entryY=1;entryDx=0;entryDy=0;" parent="1" source="Kc346eFX7LDRFWcVNTVt-42" target="Kc346eFX7LDRFWcVNTVt-41" edge="1">
          <mxGeometry relative="1" as="geometry">
            <mxPoint x="170" y="610" as="sourcePoint" />
            <mxPoint x="330" y="610" as="targetPoint" />
          </mxGeometry>
        </mxCell>
        <mxCell id="Kc346eFX7LDRFWcVNTVt-61" value="&amp;nbsp;M&amp;nbsp;" style="edgeLabel;html=1;align=center;verticalAlign=middle;resizable=0;points=[];" parent="Kc346eFX7LDRFWcVNTVt-60" connectable="0" vertex="1">
          <mxGeometry x="0.1032" y="2" relative="1" as="geometry">
            <mxPoint y="2" as="offset" />
          </mxGeometry>
        </mxCell>
        <mxCell id="Kc346eFX7LDRFWcVNTVt-62" value="" style="endArrow=none;html=1;rounded=0;" parent="1" edge="1">
          <mxGeometry relative="1" as="geometry">
            <mxPoint x="-200" y="80" as="sourcePoint" />
            <mxPoint x="1190" y="80" as="targetPoint" />
          </mxGeometry>
        </mxCell>
        <mxCell id="Kc346eFX7LDRFWcVNTVt-63" value="" style="endArrow=none;html=1;rounded=0;" parent="1" edge="1">
          <mxGeometry relative="1" as="geometry">
            <mxPoint x="1190" y="830" as="sourcePoint" />
            <mxPoint x="-200" y="840" as="targetPoint" />
          </mxGeometry>
        </mxCell>
        <mxCell id="Kc346eFX7LDRFWcVNTVt-64" value="" style="shape=link;html=1;rounded=0;exitX=0.5;exitY=0;exitDx=0;exitDy=0;entryX=0.308;entryY=0.984;entryDx=0;entryDy=0;entryPerimeter=0;" parent="1" source="Kc346eFX7LDRFWcVNTVt-7" target="Kc346eFX7LDRFWcVNTVt-1" edge="1">
          <mxGeometry relative="1" as="geometry">
            <mxPoint x="190" y="420" as="sourcePoint" />
            <mxPoint x="350" y="420" as="targetPoint" />
          </mxGeometry>
        </mxCell>
        <mxCell id="Kc346eFX7LDRFWcVNTVt-65" value="&amp;nbsp;M&amp;nbsp;" style="edgeLabel;html=1;align=center;verticalAlign=middle;resizable=0;points=[];" parent="Kc346eFX7LDRFWcVNTVt-64" connectable="0" vertex="1">
          <mxGeometry x="0.0687" relative="1" as="geometry">
            <mxPoint as="offset" />
          </mxGeometry>
        </mxCell>
        <mxCell id="Kc346eFX7LDRFWcVNTVt-66" value="Belong" style="shape=rhombus;perimeter=rhombusPerimeter;whiteSpace=wrap;html=1;align=center;" parent="1" vertex="1">
          <mxGeometry x="394" y="600" width="105" height="50" as="geometry" />
        </mxCell>
        <mxCell id="Kc346eFX7LDRFWcVNTVt-67" value="" style="shape=link;html=1;rounded=0;exitX=1;exitY=0.5;exitDx=0;exitDy=0;entryX=0;entryY=0.5;entryDx=0;entryDy=0;" parent="1" source="Kc346eFX7LDRFWcVNTVt-41" target="Kc346eFX7LDRFWcVNTVt-66" edge="1">
          <mxGeometry relative="1" as="geometry">
            <mxPoint x="450" y="540" as="sourcePoint" />
            <mxPoint x="610" y="540" as="targetPoint" />
          </mxGeometry>
        </mxCell>
        <mxCell id="Kc346eFX7LDRFWcVNTVt-68" value="&amp;nbsp;N&amp;nbsp;" style="edgeLabel;html=1;align=center;verticalAlign=middle;resizable=0;points=[];" parent="Kc346eFX7LDRFWcVNTVt-67" vertex="1" connectable="0">
          <mxGeometry x="-0.0631" y="-2" relative="1" as="geometry">
            <mxPoint y="-2" as="offset" />
          </mxGeometry>
        </mxCell>
        <mxCell id="Kc346eFX7LDRFWcVNTVt-69" value="" style="endArrow=none;html=1;rounded=0;entryX=0.5;entryY=0;entryDx=0;entryDy=0;exitX=0.5;exitY=1;exitDx=0;exitDy=0;" parent="1" source="Kc346eFX7LDRFWcVNTVt-71" target="Kc346eFX7LDRFWcVNTVt-6" edge="1">
          <mxGeometry relative="1" as="geometry">
            <mxPoint x="390" y="419" as="sourcePoint" />
            <mxPoint x="680" y="449" as="targetPoint" />
          </mxGeometry>
        </mxCell>
        <mxCell id="Kc346eFX7LDRFWcVNTVt-70" value="&amp;nbsp;1&amp;nbsp;" style="edgeLabel;html=1;align=center;verticalAlign=middle;resizable=0;points=[];" parent="Kc346eFX7LDRFWcVNTVt-69" vertex="1" connectable="0">
          <mxGeometry x="-0.057" relative="1" as="geometry">
            <mxPoint as="offset" />
          </mxGeometry>
        </mxCell>
        <mxCell id="Kc346eFX7LDRFWcVNTVt-71" value="Belong" style="shape=rhombus;perimeter=rhombusPerimeter;whiteSpace=wrap;html=1;align=center;" parent="1" vertex="1">
          <mxGeometry x="610" y="386" width="105" height="50" as="geometry" />
        </mxCell>
        <mxCell id="Kc346eFX7LDRFWcVNTVt-72" value="" style="shape=link;html=1;rounded=0;exitX=1;exitY=1;exitDx=0;exitDy=0;entryX=0.5;entryY=0;entryDx=0;entryDy=0;" parent="1" source="Kc346eFX7LDRFWcVNTVt-5" target="Kc346eFX7LDRFWcVNTVt-71" edge="1">
          <mxGeometry relative="1" as="geometry">
            <mxPoint x="312" y="409" as="sourcePoint" />
            <mxPoint x="620" y="359" as="targetPoint" />
          </mxGeometry>
        </mxCell>
        <mxCell id="Kc346eFX7LDRFWcVNTVt-73" value="&amp;nbsp;N&amp;nbsp;" style="edgeLabel;html=1;align=center;verticalAlign=middle;resizable=0;points=[];" parent="Kc346eFX7LDRFWcVNTVt-72" vertex="1" connectable="0">
          <mxGeometry x="-0.0631" y="-2" relative="1" as="geometry">
            <mxPoint y="-2" as="offset" />
          </mxGeometry>
        </mxCell>
        <mxCell id="Kc346eFX7LDRFWcVNTVt-74" value="Date" style="ellipse;whiteSpace=wrap;html=1;align=center;" parent="1" vertex="1">
          <mxGeometry x="157.87" y="506" width="62.5" height="30" as="geometry" />
        </mxCell>
        <mxCell id="Kc346eFX7LDRFWcVNTVt-75" value="" style="endArrow=none;html=1;rounded=0;exitX=1;exitY=1;exitDx=0;exitDy=0;entryX=0;entryY=0;entryDx=0;entryDy=0;" parent="1" source="Kc346eFX7LDRFWcVNTVt-74" target="Kc346eFX7LDRFWcVNTVt-41" edge="1">
          <mxGeometry relative="1" as="geometry">
            <mxPoint x="160" y="610" as="sourcePoint" />
            <mxPoint x="320" y="610" as="targetPoint" />
          </mxGeometry>
        </mxCell>
        <mxCell id="Kc346eFX7LDRFWcVNTVt-76" value="Active" style="ellipse;whiteSpace=wrap;html=1;align=center;" parent="1" vertex="1">
          <mxGeometry x="410" y="235" width="64" height="25" as="geometry" />
        </mxCell>
        <mxCell id="Kc346eFX7LDRFWcVNTVt-77" value="" style="endArrow=none;html=1;rounded=0;entryX=0.5;entryY=0;entryDx=0;entryDy=0;exitX=0.072;exitY=1.056;exitDx=0;exitDy=0;exitPerimeter=0;" parent="1" source="Kc346eFX7LDRFWcVNTVt-5" target="Kc346eFX7LDRFWcVNTVt-76" edge="1">
          <mxGeometry relative="1" as="geometry">
            <mxPoint x="560" y="310" as="sourcePoint" />
            <mxPoint x="530" y="530" as="targetPoint" />
          </mxGeometry>
        </mxCell>
        <mxCell id="Kc346eFX7LDRFWcVNTVt-78" value="Code" style="ellipse;whiteSpace=wrap;html=1;align=center;fontStyle=4;" parent="1" vertex="1">
          <mxGeometry x="30" y="205" width="80" height="35" as="geometry" />
        </mxCell>
        <mxCell id="Kc346eFX7LDRFWcVNTVt-79" value="Nationality" style="ellipse;whiteSpace=wrap;html=1;align=center;" parent="1" vertex="1">
          <mxGeometry x="-110" y="220" width="92.5" height="30" as="geometry" />
        </mxCell>
        <mxCell id="Kc346eFX7LDRFWcVNTVt-80" value="Religion" style="ellipse;whiteSpace=wrap;html=1;align=center;" parent="1" vertex="1">
          <mxGeometry x="-110" y="300" width="75" height="30" as="geometry" />
        </mxCell>
        <mxCell id="Kc346eFX7LDRFWcVNTVt-81" value="Gender" style="ellipse;whiteSpace=wrap;html=1;align=center;" parent="1" vertex="1">
          <mxGeometry x="20" y="350" width="80" height="40" as="geometry" />
        </mxCell>
        <mxCell id="Kc346eFX7LDRFWcVNTVt-82" value="Academic Level" style="ellipse;whiteSpace=wrap;html=1;align=center;" parent="1" vertex="1">
          <mxGeometry x="261.96" y="260" width="82.04" height="40" as="geometry" />
        </mxCell>
        <mxCell id="Kc346eFX7LDRFWcVNTVt-83" value="Birth" style="ellipse;whiteSpace=wrap;html=1;align=center;" parent="1" vertex="1">
          <mxGeometry x="244" y="310" width="76" height="30" as="geometry" />
        </mxCell>
        <mxCell id="Kc346eFX7LDRFWcVNTVt-84" value="Nationality" style="ellipse;whiteSpace=wrap;html=1;align=center;" parent="1" vertex="1">
          <mxGeometry x="930" y="396" width="90" height="34" as="geometry" />
        </mxCell>
        <mxCell id="Kc346eFX7LDRFWcVNTVt-85" value="Religion" style="ellipse;whiteSpace=wrap;html=1;align=center;" parent="1" vertex="1">
          <mxGeometry x="1040" y="235" width="100" height="40" as="geometry" />
        </mxCell>
        <mxCell id="Kc346eFX7LDRFWcVNTVt-86" value="Gender" style="ellipse;whiteSpace=wrap;html=1;align=center;" parent="1" vertex="1">
          <mxGeometry x="1060" y="282.5" width="80" height="37.5" as="geometry" />
        </mxCell>
        <mxCell id="Kc346eFX7LDRFWcVNTVt-87" value="id" style="ellipse;whiteSpace=wrap;html=1;align=center;fontStyle=4;" parent="1" vertex="1">
          <mxGeometry x="782.5" y="340" width="65" height="40" as="geometry" />
        </mxCell>
        <mxCell id="Kc346eFX7LDRFWcVNTVt-88" value="Birthdate" style="ellipse;whiteSpace=wrap;html=1;align=center;" parent="1" vertex="1">
          <mxGeometry x="870" y="187" width="100" height="40" as="geometry" />
        </mxCell>
        <mxCell id="Kc346eFX7LDRFWcVNTVt-89" value="" style="endArrow=none;html=1;rounded=0;exitX=1;exitY=0;exitDx=0;exitDy=0;" parent="1" source="Kc346eFX7LDRFWcVNTVt-81" edge="1">
          <mxGeometry relative="1" as="geometry">
            <mxPoint x="7.5" y="409" as="sourcePoint" />
            <mxPoint x="130" y="320" as="targetPoint" />
          </mxGeometry>
        </mxCell>
        <mxCell id="Kc346eFX7LDRFWcVNTVt-90" value="" style="endArrow=none;html=1;rounded=0;entryX=0;entryY=0.5;entryDx=0;entryDy=0;exitX=1;exitY=0.5;exitDx=0;exitDy=0;" parent="1" source="Kc346eFX7LDRFWcVNTVt-80" target="Kc346eFX7LDRFWcVNTVt-1" edge="1">
          <mxGeometry relative="1" as="geometry">
            <mxPoint y="309.5" as="sourcePoint" />
            <mxPoint x="160" y="309.5" as="targetPoint" />
          </mxGeometry>
        </mxCell>
        <mxCell id="Kc346eFX7LDRFWcVNTVt-91" value="" style="endArrow=none;html=1;rounded=0;entryX=0;entryY=0.25;entryDx=0;entryDy=0;exitX=1;exitY=0.5;exitDx=0;exitDy=0;" parent="1" source="Kc346eFX7LDRFWcVNTVt-79" target="Kc346eFX7LDRFWcVNTVt-1" edge="1">
          <mxGeometry relative="1" as="geometry">
            <mxPoint x="-5" y="269.5" as="sourcePoint" />
            <mxPoint x="155" y="269.5" as="targetPoint" />
          </mxGeometry>
        </mxCell>
        <mxCell id="Kc346eFX7LDRFWcVNTVt-92" value="" style="endArrow=none;html=1;rounded=0;entryX=0.25;entryY=0;entryDx=0;entryDy=0;exitX=1;exitY=1;exitDx=0;exitDy=0;" parent="1" source="Kc346eFX7LDRFWcVNTVt-78" target="Kc346eFX7LDRFWcVNTVt-1" edge="1">
          <mxGeometry relative="1" as="geometry">
            <mxPoint x="37.5" y="250" as="sourcePoint" />
            <mxPoint x="197.5" y="250" as="targetPoint" />
          </mxGeometry>
        </mxCell>
        <mxCell id="Kc346eFX7LDRFWcVNTVt-93" value="" style="endArrow=none;html=1;rounded=0;entryX=0.4;entryY=0;entryDx=0;entryDy=0;entryPerimeter=0;exitX=0.5;exitY=1;exitDx=0;exitDy=0;" parent="1" source="Kc346eFX7LDRFWcVNTVt-151" target="Kc346eFX7LDRFWcVNTVt-1" edge="1">
          <mxGeometry relative="1" as="geometry">
            <mxPoint x="171.39249999999993" y="240.55999999999995" as="sourcePoint" />
            <mxPoint x="290" y="240" as="targetPoint" />
          </mxGeometry>
        </mxCell>
        <mxCell id="Kc346eFX7LDRFWcVNTVt-94" value="" style="endArrow=none;html=1;rounded=0;entryX=0;entryY=0.5;entryDx=0;entryDy=0;exitX=1;exitY=0.75;exitDx=0;exitDy=0;" parent="1" source="Kc346eFX7LDRFWcVNTVt-1" target="Kc346eFX7LDRFWcVNTVt-83" edge="1">
          <mxGeometry relative="1" as="geometry">
            <mxPoint x="230" y="330" as="sourcePoint" />
            <mxPoint x="374" y="310" as="targetPoint" />
          </mxGeometry>
        </mxCell>
        <mxCell id="Kc346eFX7LDRFWcVNTVt-95" value="" style="endArrow=none;html=1;rounded=0;entryX=0.029;entryY=0.694;entryDx=0;entryDy=0;entryPerimeter=0;exitX=1;exitY=0.5;exitDx=0;exitDy=0;" parent="1" source="Kc346eFX7LDRFWcVNTVt-1" target="Kc346eFX7LDRFWcVNTVt-82" edge="1">
          <mxGeometry relative="1" as="geometry">
            <mxPoint x="212.04" y="289" as="sourcePoint" />
            <mxPoint x="372.03999999999996" y="289" as="targetPoint" />
          </mxGeometry>
        </mxCell>
        <mxCell id="Kc346eFX7LDRFWcVNTVt-96" value="name" style="ellipse;whiteSpace=wrap;html=1;align=center;" parent="1" vertex="1">
          <mxGeometry x="-51.5" y="345" width="61.5" height="30" as="geometry" />
        </mxCell>
        <mxCell id="Kc346eFX7LDRFWcVNTVt-97" value="" style="endArrow=none;html=1;rounded=0;entryX=0.5;entryY=0;entryDx=0;entryDy=0;exitX=0;exitY=1;exitDx=0;exitDy=0;" parent="1" source="Kc346eFX7LDRFWcVNTVt-1" target="Kc346eFX7LDRFWcVNTVt-96" edge="1">
          <mxGeometry relative="1" as="geometry">
            <mxPoint x="147.5" y="319.5" as="sourcePoint" />
            <mxPoint x="160" y="340" as="targetPoint" />
          </mxGeometry>
        </mxCell>
        <mxCell id="Kc346eFX7LDRFWcVNTVt-98" value="name" style="ellipse;whiteSpace=wrap;html=1;align=center;" parent="1" vertex="1">
          <mxGeometry x="788.5" y="235" width="81.5" height="40" as="geometry" />
        </mxCell>
        <mxCell id="Kc346eFX7LDRFWcVNTVt-99" value="" style="endArrow=none;html=1;rounded=0;entryX=0.25;entryY=0;entryDx=0;entryDy=0;exitX=1;exitY=0.5;exitDx=0;exitDy=0;" parent="1" source="Kc346eFX7LDRFWcVNTVt-98" target="Kc346eFX7LDRFWcVNTVt-2" edge="1">
          <mxGeometry relative="1" as="geometry">
            <mxPoint x="860" y="260" as="sourcePoint" />
            <mxPoint x="1020" y="260" as="targetPoint" />
          </mxGeometry>
        </mxCell>
        <mxCell id="Kc346eFX7LDRFWcVNTVt-100" value="" style="endArrow=none;html=1;rounded=0;entryX=0;entryY=0.5;entryDx=0;entryDy=0;exitX=1;exitY=0.5;exitDx=0;exitDy=0;" parent="1" source="Kc346eFX7LDRFWcVNTVt-164" target="Kc346eFX7LDRFWcVNTVt-2" edge="1">
          <mxGeometry relative="1" as="geometry">
            <mxPoint x="848" y="330" as="sourcePoint" />
            <mxPoint x="1007.5" y="310" as="targetPoint" />
          </mxGeometry>
        </mxCell>
        <mxCell id="Kc346eFX7LDRFWcVNTVt-101" value="" style="endArrow=none;html=1;rounded=0;exitX=1;exitY=0.5;exitDx=0;exitDy=0;entryX=0;entryY=1;entryDx=0;entryDy=0;" parent="1" source="Kc346eFX7LDRFWcVNTVt-87" target="Kc346eFX7LDRFWcVNTVt-2" edge="1">
          <mxGeometry relative="1" as="geometry">
            <mxPoint x="740" y="330" as="sourcePoint" />
            <mxPoint x="900" y="330" as="targetPoint" />
          </mxGeometry>
        </mxCell>
        <mxCell id="Kc346eFX7LDRFWcVNTVt-102" value="" style="endArrow=none;html=1;rounded=0;entryX=0.592;entryY=-0.006;entryDx=0;entryDy=0;entryPerimeter=0;exitX=0.5;exitY=1;exitDx=0;exitDy=0;" parent="1" source="Kc346eFX7LDRFWcVNTVt-88" target="Kc346eFX7LDRFWcVNTVt-2" edge="1">
          <mxGeometry relative="1" as="geometry">
            <mxPoint x="910" y="220" as="sourcePoint" />
            <mxPoint x="1090" y="275" as="targetPoint" />
          </mxGeometry>
        </mxCell>
        <mxCell id="Kc346eFX7LDRFWcVNTVt-103" value="" style="endArrow=none;html=1;rounded=0;exitX=0.75;exitY=1;exitDx=0;exitDy=0;entryX=0.5;entryY=0;entryDx=0;entryDy=0;" parent="1" source="Kc346eFX7LDRFWcVNTVt-2" target="Kc346eFX7LDRFWcVNTVt-84" edge="1">
          <mxGeometry relative="1" as="geometry">
            <mxPoint x="860" y="235" as="sourcePoint" />
            <mxPoint x="1020" y="235" as="targetPoint" />
          </mxGeometry>
        </mxCell>
        <mxCell id="Kc346eFX7LDRFWcVNTVt-104" value="" style="endArrow=none;html=1;rounded=0;exitX=1;exitY=0;exitDx=0;exitDy=0;entryX=0;entryY=0.5;entryDx=0;entryDy=0;" parent="1" source="Kc346eFX7LDRFWcVNTVt-2" target="Kc346eFX7LDRFWcVNTVt-85" edge="1">
          <mxGeometry relative="1" as="geometry">
            <mxPoint x="910" y="259.5" as="sourcePoint" />
            <mxPoint x="1070" y="259.5" as="targetPoint" />
          </mxGeometry>
        </mxCell>
        <mxCell id="Kc346eFX7LDRFWcVNTVt-105" value="" style="endArrow=none;html=1;rounded=0;exitX=1;exitY=0.75;exitDx=0;exitDy=0;entryX=0;entryY=0.5;entryDx=0;entryDy=0;" parent="1" source="Kc346eFX7LDRFWcVNTVt-2" target="Kc346eFX7LDRFWcVNTVt-86" edge="1">
          <mxGeometry relative="1" as="geometry">
            <mxPoint x="950" y="340" as="sourcePoint" />
            <mxPoint x="1110" y="340" as="targetPoint" />
          </mxGeometry>
        </mxCell>
        <mxCell id="Kc346eFX7LDRFWcVNTVt-106" value="Edu_level" style="ellipse;whiteSpace=wrap;html=1;align=center;" parent="1" vertex="1">
          <mxGeometry x="1070" y="335" width="90" height="35" as="geometry" />
        </mxCell>
        <mxCell id="Kc346eFX7LDRFWcVNTVt-107" value="" style="endArrow=none;html=1;rounded=0;entryX=0;entryY=0.5;entryDx=0;entryDy=0;exitX=1;exitY=1;exitDx=0;exitDy=0;" parent="1" source="Kc346eFX7LDRFWcVNTVt-2" target="Kc346eFX7LDRFWcVNTVt-106" edge="1">
          <mxGeometry relative="1" as="geometry">
            <mxPoint x="1030" y="390" as="sourcePoint" />
            <mxPoint x="1040" y="389" as="targetPoint" />
          </mxGeometry>
        </mxCell>
        <mxCell id="Kc346eFX7LDRFWcVNTVt-108" value="Code" style="ellipse;whiteSpace=wrap;html=1;align=center;fontStyle=4;" parent="1" vertex="1">
          <mxGeometry x="460" y="100" width="60" height="30" as="geometry" />
        </mxCell>
        <mxCell id="Kc346eFX7LDRFWcVNTVt-109" value="id" style="ellipse;whiteSpace=wrap;html=1;align=center;fontStyle=4;" parent="1" vertex="1">
          <mxGeometry x="890" y="575" width="70" height="35" as="geometry" />
        </mxCell>
        <mxCell id="Kc346eFX7LDRFWcVNTVt-110" value="Code" style="ellipse;whiteSpace=wrap;html=1;align=center;fontStyle=4;" parent="1" vertex="1">
          <mxGeometry x="307.75" y="517.5" width="65" height="32.5" as="geometry" />
        </mxCell>
        <mxCell id="Kc346eFX7LDRFWcVNTVt-111" value="id" style="ellipse;whiteSpace=wrap;html=1;align=center;fontStyle=4;" parent="1" vertex="1">
          <mxGeometry x="-100" y="491" width="70" height="29" as="geometry" />
        </mxCell>
        <mxCell id="Kc346eFX7LDRFWcVNTVt-112" value="id" style="ellipse;whiteSpace=wrap;html=1;align=center;fontStyle=4;" parent="1" vertex="1">
          <mxGeometry x="505" y="675" width="65" height="25" as="geometry" />
        </mxCell>
        <mxCell id="Kc346eFX7LDRFWcVNTVt-113" value="Level" style="ellipse;whiteSpace=wrap;html=1;align=center;" parent="1" vertex="1">
          <mxGeometry x="860" y="525" width="82.04" height="40" as="geometry" />
        </mxCell>
        <mxCell id="Kc346eFX7LDRFWcVNTVt-114" value="title" style="ellipse;whiteSpace=wrap;html=1;align=center;" parent="1" vertex="1">
          <mxGeometry x="500" y="235" width="70" height="25" as="geometry" />
        </mxCell>
        <mxCell id="Kc346eFX7LDRFWcVNTVt-115" value="" style="endArrow=none;html=1;rounded=0;entryX=0.5;entryY=0;entryDx=0;entryDy=0;exitX=0.5;exitY=1;exitDx=0;exitDy=0;" parent="1" source="Kc346eFX7LDRFWcVNTVt-5" target="Kc346eFX7LDRFWcVNTVt-114" edge="1">
          <mxGeometry relative="1" as="geometry">
            <mxPoint x="510.27" y="200" as="sourcePoint" />
            <mxPoint x="670.27" y="200" as="targetPoint" />
          </mxGeometry>
        </mxCell>
        <mxCell id="Kc346eFX7LDRFWcVNTVt-116" value="title" style="ellipse;whiteSpace=wrap;html=1;align=center;" parent="1" vertex="1">
          <mxGeometry x="307.75" y="655" width="72.25" height="25" as="geometry" />
        </mxCell>
        <mxCell id="Kc346eFX7LDRFWcVNTVt-117" value="" style="endArrow=none;html=1;rounded=0;" parent="1" target="Kc346eFX7LDRFWcVNTVt-116" edge="1">
          <mxGeometry relative="1" as="geometry">
            <mxPoint x="281.58" y="630" as="sourcePoint" />
            <mxPoint x="441.58" y="630" as="targetPoint" />
          </mxGeometry>
        </mxCell>
        <mxCell id="Kc346eFX7LDRFWcVNTVt-118" value="" style="endArrow=none;html=1;rounded=0;entryX=0;entryY=1;entryDx=0;entryDy=0;exitX=0.75;exitY=0;exitDx=0;exitDy=0;" parent="1" source="Kc346eFX7LDRFWcVNTVt-41" target="Kc346eFX7LDRFWcVNTVt-110" edge="1">
          <mxGeometry relative="1" as="geometry">
            <mxPoint x="307.75" y="590" as="sourcePoint" />
            <mxPoint x="467.75" y="590" as="targetPoint" />
          </mxGeometry>
        </mxCell>
        <mxCell id="Kc346eFX7LDRFWcVNTVt-119" value="title" style="ellipse;whiteSpace=wrap;html=1;align=center;" parent="1" vertex="1">
          <mxGeometry x="830" y="615" width="80" height="40" as="geometry" />
        </mxCell>
        <mxCell id="Kc346eFX7LDRFWcVNTVt-120" value="Number of&amp;nbsp;&lt;br&gt;hours" style="ellipse;whiteSpace=wrap;html=1;align=center;" parent="1" vertex="1">
          <mxGeometry x="710" y="630" width="100" height="40" as="geometry" />
        </mxCell>
        <mxCell id="Kc346eFX7LDRFWcVNTVt-121" value="Number of&lt;br&gt;lecture" style="ellipse;whiteSpace=wrap;html=1;align=center;" parent="1" vertex="1">
          <mxGeometry x="715" y="436" width="100" height="40" as="geometry" />
        </mxCell>
        <mxCell id="Kc346eFX7LDRFWcVNTVt-122" value="" style="endArrow=none;html=1;rounded=0;entryX=0.6;entryY=0;entryDx=0;entryDy=0;entryPerimeter=0;exitX=0.5;exitY=1;exitDx=0;exitDy=0;" parent="1" source="Kc346eFX7LDRFWcVNTVt-121" target="Kc346eFX7LDRFWcVNTVt-6" edge="1">
          <mxGeometry relative="1" as="geometry">
            <mxPoint x="745" y="481" as="sourcePoint" />
            <mxPoint x="770" y="550" as="targetPoint" />
          </mxGeometry>
        </mxCell>
        <mxCell id="Kc346eFX7LDRFWcVNTVt-123" value="" style="endArrow=none;html=1;rounded=0;exitX=1;exitY=0;exitDx=0;exitDy=0;entryX=0;entryY=0.5;entryDx=0;entryDy=0;" parent="1" source="Kc346eFX7LDRFWcVNTVt-6" target="Kc346eFX7LDRFWcVNTVt-113" edge="1">
          <mxGeometry relative="1" as="geometry">
            <mxPoint x="710" y="539.5" as="sourcePoint" />
            <mxPoint x="870" y="539.5" as="targetPoint" />
          </mxGeometry>
        </mxCell>
        <mxCell id="Kc346eFX7LDRFWcVNTVt-124" value="" style="endArrow=none;html=1;rounded=0;exitX=1;exitY=0.5;exitDx=0;exitDy=0;entryX=0;entryY=0.5;entryDx=0;entryDy=0;" parent="1" source="Kc346eFX7LDRFWcVNTVt-6" target="Kc346eFX7LDRFWcVNTVt-109" edge="1">
          <mxGeometry relative="1" as="geometry">
            <mxPoint x="752.5" y="590" as="sourcePoint" />
            <mxPoint x="912.5" y="590" as="targetPoint" />
          </mxGeometry>
        </mxCell>
        <mxCell id="Kc346eFX7LDRFWcVNTVt-125" value="" style="endArrow=none;html=1;rounded=0;entryX=0;entryY=0;entryDx=0;entryDy=0;exitX=1;exitY=1;exitDx=0;exitDy=0;" parent="1" source="Kc346eFX7LDRFWcVNTVt-6" target="Kc346eFX7LDRFWcVNTVt-119" edge="1">
          <mxGeometry relative="1" as="geometry">
            <mxPoint x="817.5" y="600" as="sourcePoint" />
            <mxPoint x="977.5" y="600" as="targetPoint" />
          </mxGeometry>
        </mxCell>
        <mxCell id="Kc346eFX7LDRFWcVNTVt-126" value="" style="endArrow=none;html=1;rounded=0;exitX=0.5;exitY=0;exitDx=0;exitDy=0;entryX=0.75;entryY=1;entryDx=0;entryDy=0;" parent="1" source="Kc346eFX7LDRFWcVNTVt-120" target="Kc346eFX7LDRFWcVNTVt-6" edge="1">
          <mxGeometry relative="1" as="geometry">
            <mxPoint x="610" y="599" as="sourcePoint" />
            <mxPoint x="770" y="599" as="targetPoint" />
          </mxGeometry>
        </mxCell>
        <mxCell id="Kc346eFX7LDRFWcVNTVt-127" value="Level" style="ellipse;whiteSpace=wrap;html=1;align=center;" parent="1" vertex="1">
          <mxGeometry x="-182.04" y="531" width="82.04" height="39" as="geometry" />
        </mxCell>
        <mxCell id="Kc346eFX7LDRFWcVNTVt-128" value="title" style="ellipse;whiteSpace=wrap;html=1;align=center;" parent="1" vertex="1">
          <mxGeometry x="-170" y="590" width="80" height="30" as="geometry" />
        </mxCell>
        <mxCell id="Kc346eFX7LDRFWcVNTVt-129" value="" style="endArrow=none;html=1;rounded=0;exitX=0.5;exitY=1;exitDx=0;exitDy=0;entryX=0;entryY=0;entryDx=0;entryDy=0;" parent="1" source="Kc346eFX7LDRFWcVNTVt-111" target="Kc346eFX7LDRFWcVNTVt-4" edge="1">
          <mxGeometry relative="1" as="geometry">
            <mxPoint x="-45" y="525" as="sourcePoint" />
            <mxPoint x="115" y="525" as="targetPoint" />
          </mxGeometry>
        </mxCell>
        <mxCell id="Kc346eFX7LDRFWcVNTVt-130" value="" style="endArrow=none;html=1;rounded=0;entryX=0;entryY=0.25;entryDx=0;entryDy=0;exitX=1;exitY=0.5;exitDx=0;exitDy=0;" parent="1" source="Kc346eFX7LDRFWcVNTVt-127" target="Kc346eFX7LDRFWcVNTVt-4" edge="1">
          <mxGeometry relative="1" as="geometry">
            <mxPoint x="-110" y="564" as="sourcePoint" />
            <mxPoint x="50" y="564" as="targetPoint" />
          </mxGeometry>
        </mxCell>
        <mxCell id="Kc346eFX7LDRFWcVNTVt-131" value="" style="endArrow=none;html=1;rounded=0;entryX=0;entryY=1;entryDx=0;entryDy=0;exitX=1;exitY=0.5;exitDx=0;exitDy=0;" parent="1" source="Kc346eFX7LDRFWcVNTVt-128" target="Kc346eFX7LDRFWcVNTVt-4" edge="1">
          <mxGeometry relative="1" as="geometry">
            <mxPoint x="-90" y="609" as="sourcePoint" />
            <mxPoint x="70" y="609" as="targetPoint" />
          </mxGeometry>
        </mxCell>
        <mxCell id="Kc346eFX7LDRFWcVNTVt-132" value="code" style="ellipse;whiteSpace=wrap;html=1;align=center;fontStyle=4;" parent="1" vertex="1">
          <mxGeometry x="10" y="640" width="69" height="30" as="geometry" />
        </mxCell>
        <mxCell id="Kc346eFX7LDRFWcVNTVt-133" value="name" style="ellipse;whiteSpace=wrap;html=1;align=center;" parent="1" vertex="1">
          <mxGeometry x="57.13" y="610" width="75.75" height="30" as="geometry" />
        </mxCell>
        <mxCell id="Kc346eFX7LDRFWcVNTVt-134" value="Edu_level" style="ellipse;whiteSpace=wrap;html=1;align=center;" parent="1" vertex="1">
          <mxGeometry x="190" y="650" width="90" height="30" as="geometry" />
        </mxCell>
        <mxCell id="Kc346eFX7LDRFWcVNTVt-135" value="Active" style="ellipse;whiteSpace=wrap;html=1;align=center;" parent="1" vertex="1">
          <mxGeometry x="227.5" y="506" width="50" height="25" as="geometry" />
        </mxCell>
        <mxCell id="Kc346eFX7LDRFWcVNTVt-136" value="" style="endArrow=none;html=1;rounded=0;entryX=0.25;entryY=0;entryDx=0;entryDy=0;exitX=1;exitY=1;exitDx=0;exitDy=0;" parent="1" source="Kc346eFX7LDRFWcVNTVt-135" target="Kc346eFX7LDRFWcVNTVt-41" edge="1">
          <mxGeometry relative="1" as="geometry">
            <mxPoint x="247.04" y="550.5" as="sourcePoint" />
            <mxPoint x="407.03999999999996" y="550.5" as="targetPoint" />
          </mxGeometry>
        </mxCell>
        <mxCell id="Kc346eFX7LDRFWcVNTVt-138" value="" style="endArrow=none;html=1;rounded=0;entryX=0;entryY=1;entryDx=0;entryDy=0;exitX=1;exitY=0;exitDx=0;exitDy=0;" parent="1" source="Kc346eFX7LDRFWcVNTVt-33" target="Kc346eFX7LDRFWcVNTVt-134" edge="1">
          <mxGeometry relative="1" as="geometry">
            <mxPoint x="156.25" y="699" as="sourcePoint" />
            <mxPoint x="316.25" y="699" as="targetPoint" />
          </mxGeometry>
        </mxCell>
        <mxCell id="Kc346eFX7LDRFWcVNTVt-139" value="" style="endArrow=none;html=1;rounded=0;entryX=0;entryY=0.5;entryDx=0;entryDy=0;exitX=1;exitY=0.25;exitDx=0;exitDy=0;" parent="1" source="Kc346eFX7LDRFWcVNTVt-33" target="picvw7iT0pPr-Mud9RER-1" edge="1">
          <mxGeometry relative="1" as="geometry">
            <mxPoint x="156.25" y="714.5" as="sourcePoint" />
            <mxPoint x="181.14550000000008" y="702.5749999999998" as="targetPoint" />
          </mxGeometry>
        </mxCell>
        <mxCell id="Kc346eFX7LDRFWcVNTVt-140" value="" style="endArrow=none;html=1;rounded=0;entryX=0.421;entryY=1.056;entryDx=0;entryDy=0;entryPerimeter=0;exitX=0.25;exitY=0;exitDx=0;exitDy=0;" parent="1" source="Kc346eFX7LDRFWcVNTVt-33" target="Kc346eFX7LDRFWcVNTVt-133" edge="1">
          <mxGeometry relative="1" as="geometry">
            <mxPoint x="78.75" y="699" as="sourcePoint" />
            <mxPoint x="238.75" y="699" as="targetPoint" />
          </mxGeometry>
        </mxCell>
        <mxCell id="Kc346eFX7LDRFWcVNTVt-141" value="" style="endArrow=none;html=1;rounded=0;entryX=0;entryY=0;entryDx=0;entryDy=0;" parent="1" target="Kc346eFX7LDRFWcVNTVt-33" edge="1">
          <mxGeometry relative="1" as="geometry">
            <mxPoint x="40" y="670" as="sourcePoint" />
            <mxPoint x="200" y="670" as="targetPoint" />
          </mxGeometry>
        </mxCell>
        <mxCell id="Kc346eFX7LDRFWcVNTVt-142" value="title" style="ellipse;whiteSpace=wrap;html=1;align=center;" parent="1" vertex="1">
          <mxGeometry x="470" y="730" width="83.75" height="30" as="geometry" />
        </mxCell>
        <mxCell id="Kc346eFX7LDRFWcVNTVt-143" value="pictures" style="ellipse;whiteSpace=wrap;html=1;align=center;" parent="1" vertex="1">
          <mxGeometry x="560" y="780" width="80.54" height="30" as="geometry" />
        </mxCell>
        <mxCell id="Kc346eFX7LDRFWcVNTVt-144" value="body" style="ellipse;whiteSpace=wrap;html=1;align=center;" parent="1" vertex="1">
          <mxGeometry x="680" y="780" width="90" height="30" as="geometry" />
        </mxCell>
        <mxCell id="Kc346eFX7LDRFWcVNTVt-145" value="" style="endArrow=none;html=1;rounded=0;entryX=0.5;entryY=0;entryDx=0;entryDy=0;exitX=1;exitY=0.75;exitDx=0;exitDy=0;" parent="1" source="Kc346eFX7LDRFWcVNTVt-3" target="Kc346eFX7LDRFWcVNTVt-144" edge="1">
          <mxGeometry relative="1" as="geometry">
            <mxPoint x="687.5799999999999" y="749.5" as="sourcePoint" />
            <mxPoint x="847.58" y="749.5" as="targetPoint" />
          </mxGeometry>
        </mxCell>
        <mxCell id="Kc346eFX7LDRFWcVNTVt-146" value="" style="endArrow=none;html=1;rounded=0;entryX=0.641;entryY=1.039;entryDx=0;entryDy=0;entryPerimeter=0;exitX=1;exitY=0;exitDx=0;exitDy=0;" parent="1" source="Kc346eFX7LDRFWcVNTVt-143" target="Kc346eFX7LDRFWcVNTVt-3" edge="1">
          <mxGeometry relative="1" as="geometry">
            <mxPoint x="633.75" y="790" as="sourcePoint" />
            <mxPoint x="793.75" y="790" as="targetPoint" />
          </mxGeometry>
        </mxCell>
        <mxCell id="Kc346eFX7LDRFWcVNTVt-147" value="" style="endArrow=none;html=1;rounded=0;entryX=0;entryY=0.75;entryDx=0;entryDy=0;exitX=1;exitY=0.5;exitDx=0;exitDy=0;" parent="1" source="Kc346eFX7LDRFWcVNTVt-142" target="Kc346eFX7LDRFWcVNTVt-3" edge="1">
          <mxGeometry relative="1" as="geometry">
            <mxPoint x="550" y="780" as="sourcePoint" />
            <mxPoint x="713.75" y="750" as="targetPoint" />
          </mxGeometry>
        </mxCell>
        <mxCell id="Kc346eFX7LDRFWcVNTVt-148" value="" style="endArrow=none;html=1;rounded=0;entryX=0;entryY=0;entryDx=0;entryDy=0;exitX=1;exitY=1;exitDx=0;exitDy=0;" parent="1" source="Kc346eFX7LDRFWcVNTVt-112" target="Kc346eFX7LDRFWcVNTVt-3" edge="1">
          <mxGeometry relative="1" as="geometry">
            <mxPoint x="573.5" y="700" as="sourcePoint" />
            <mxPoint x="733.5" y="700" as="targetPoint" />
          </mxGeometry>
        </mxCell>
        <mxCell id="Kc346eFX7LDRFWcVNTVt-149" value="Mark" style="ellipse;whiteSpace=wrap;html=1;align=center;" parent="1" vertex="1">
          <mxGeometry x="130.01999999999998" y="406" width="81.48" height="30" as="geometry" />
        </mxCell>
        <mxCell id="Kc346eFX7LDRFWcVNTVt-150" value="" style="endArrow=none;html=1;rounded=0;exitX=1;exitY=0;exitDx=0;exitDy=0;entryX=0;entryY=1;entryDx=0;entryDy=0;" parent="1" source="Kc346eFX7LDRFWcVNTVt-7" target="Kc346eFX7LDRFWcVNTVt-149" edge="1">
          <mxGeometry relative="1" as="geometry">
            <mxPoint x="230" y="360" as="sourcePoint" />
            <mxPoint x="390" y="360" as="targetPoint" />
          </mxGeometry>
        </mxCell>
        <mxCell id="Kc346eFX7LDRFWcVNTVt-151" value="National_ID" style="ellipse;whiteSpace=wrap;html=1;align=center;" parent="1" vertex="1">
          <mxGeometry x="127.5" y="195" width="100" height="40" as="geometry" />
        </mxCell>
        <mxCell id="Kc346eFX7LDRFWcVNTVt-152" value="Contact" style="ellipse;whiteSpace=wrap;html=1;align=center;" parent="1" vertex="1">
          <mxGeometry x="57.87" y="160" width="100" height="40" as="geometry" />
        </mxCell>
        <mxCell id="Kc346eFX7LDRFWcVNTVt-153" value="" style="endArrow=none;html=1;rounded=0;entryX=0.333;entryY=-0.002;entryDx=0;entryDy=0;entryPerimeter=0;exitX=0.5;exitY=1;exitDx=0;exitDy=0;" parent="1" source="Kc346eFX7LDRFWcVNTVt-152" target="Kc346eFX7LDRFWcVNTVt-1" edge="1">
          <mxGeometry relative="1" as="geometry">
            <mxPoint x="270" y="330" as="sourcePoint" />
            <mxPoint x="430" y="330" as="targetPoint" />
          </mxGeometry>
        </mxCell>
        <mxCell id="Kc346eFX7LDRFWcVNTVt-154" value="Academic Email" style="ellipse;whiteSpace=wrap;html=1;align=center;" parent="1" vertex="1">
          <mxGeometry x="-55" y="260" width="100" height="40" as="geometry" />
        </mxCell>
        <mxCell id="Kc346eFX7LDRFWcVNTVt-155" value="" style="endArrow=none;html=1;rounded=0;exitX=1;exitY=0.5;exitDx=0;exitDy=0;entryX=0.003;entryY=0.36;entryDx=0;entryDy=0;entryPerimeter=0;" parent="1" source="Kc346eFX7LDRFWcVNTVt-154" target="Kc346eFX7LDRFWcVNTVt-1" edge="1">
          <mxGeometry relative="1" as="geometry">
            <mxPoint y="260" as="sourcePoint" />
            <mxPoint x="160" y="260" as="targetPoint" />
          </mxGeometry>
        </mxCell>
        <mxCell id="Kc346eFX7LDRFWcVNTVt-156" value="Email" style="ellipse;whiteSpace=wrap;html=1;align=center;" parent="1" vertex="1">
          <mxGeometry x="94.5" y="102.5" width="75" height="25" as="geometry" />
        </mxCell>
        <mxCell id="Kc346eFX7LDRFWcVNTVt-157" value="Address&amp;nbsp;" style="ellipse;whiteSpace=wrap;html=1;align=center;" parent="1" vertex="1">
          <mxGeometry x="-55" y="140" width="75" height="25" as="geometry" />
        </mxCell>
        <mxCell id="Kc346eFX7LDRFWcVNTVt-158" value="Phone" style="ellipse;whiteSpace=wrap;html=1;align=center;" parent="1" vertex="1">
          <mxGeometry x="4" y="102.5" width="75" height="30" as="geometry" />
        </mxCell>
        <mxCell id="Kc346eFX7LDRFWcVNTVt-159" value="" style="endArrow=none;html=1;rounded=0;exitX=1;exitY=1;exitDx=0;exitDy=0;entryX=0;entryY=0.5;entryDx=0;entryDy=0;" parent="1" source="Kc346eFX7LDRFWcVNTVt-157" target="Kc346eFX7LDRFWcVNTVt-152" edge="1">
          <mxGeometry relative="1" as="geometry">
            <mxPoint y="250" as="sourcePoint" />
            <mxPoint x="160" y="250" as="targetPoint" />
          </mxGeometry>
        </mxCell>
        <mxCell id="Kc346eFX7LDRFWcVNTVt-160" value="" style="endArrow=none;html=1;rounded=0;exitX=0.5;exitY=1;exitDx=0;exitDy=0;entryX=0.579;entryY=0.03;entryDx=0;entryDy=0;entryPerimeter=0;" parent="1" source="Kc346eFX7LDRFWcVNTVt-156" target="Kc346eFX7LDRFWcVNTVt-152" edge="1">
          <mxGeometry relative="1" as="geometry">
            <mxPoint x="19" y="171" as="sourcePoint" />
            <mxPoint x="68" y="190" as="targetPoint" />
          </mxGeometry>
        </mxCell>
        <mxCell id="Kc346eFX7LDRFWcVNTVt-161" value="" style="endArrow=none;html=1;rounded=0;exitX=0.613;exitY=0.917;exitDx=0;exitDy=0;entryX=0;entryY=0;entryDx=0;entryDy=0;exitPerimeter=0;" parent="1" source="Kc346eFX7LDRFWcVNTVt-158" target="Kc346eFX7LDRFWcVNTVt-152" edge="1">
          <mxGeometry relative="1" as="geometry">
            <mxPoint x="29" y="181" as="sourcePoint" />
            <mxPoint x="78" y="200" as="targetPoint" />
          </mxGeometry>
        </mxCell>
        <mxCell id="Kc346eFX7LDRFWcVNTVt-162" value="Picture" style="ellipse;whiteSpace=wrap;html=1;align=center;" parent="1" vertex="1">
          <mxGeometry x="-80" y="175" width="100" height="40" as="geometry" />
        </mxCell>
        <mxCell id="Kc346eFX7LDRFWcVNTVt-163" value="" style="endArrow=none;html=1;rounded=0;exitX=0.5;exitY=1;exitDx=0;exitDy=0;entryX=0;entryY=0;entryDx=0;entryDy=0;" parent="1" source="Kc346eFX7LDRFWcVNTVt-162" target="Kc346eFX7LDRFWcVNTVt-1" edge="1">
          <mxGeometry relative="1" as="geometry">
            <mxPoint y="250" as="sourcePoint" />
            <mxPoint x="160" y="250" as="targetPoint" />
          </mxGeometry>
        </mxCell>
        <mxCell id="Kc346eFX7LDRFWcVNTVt-164" value="National_ID" style="ellipse;whiteSpace=wrap;html=1;align=center;" parent="1" vertex="1">
          <mxGeometry x="747.5" y="295" width="100" height="40" as="geometry" />
        </mxCell>
        <mxCell id="Kc346eFX7LDRFWcVNTVt-165" value="Contact" style="ellipse;whiteSpace=wrap;html=1;align=center;" parent="1" vertex="1">
          <mxGeometry x="220" y="770" width="96.87" height="30" as="geometry" />
        </mxCell>
        <mxCell id="Kc346eFX7LDRFWcVNTVt-166" value="" style="endArrow=none;html=1;rounded=0;entryX=0.038;entryY=0.27;entryDx=0;entryDy=0;entryPerimeter=0;exitX=1;exitY=1;exitDx=0;exitDy=0;jumpStyle=arc;jumpSize=10;" parent="1" source="Kc346eFX7LDRFWcVNTVt-33" target="Kc346eFX7LDRFWcVNTVt-165" edge="1">
          <mxGeometry relative="1" as="geometry">
            <mxPoint x="166.87" y="695" as="sourcePoint" />
            <mxPoint x="210" y="825" as="targetPoint" />
          </mxGeometry>
        </mxCell>
        <mxCell id="Kc346eFX7LDRFWcVNTVt-167" value="Email" style="ellipse;whiteSpace=wrap;html=1;align=center;" parent="1" vertex="1">
          <mxGeometry x="350" y="795" width="75" height="25" as="geometry" />
        </mxCell>
        <mxCell id="Kc346eFX7LDRFWcVNTVt-168" value="Address&amp;nbsp;" style="ellipse;whiteSpace=wrap;html=1;align=center;" parent="1" vertex="1">
          <mxGeometry x="360" y="755" width="75" height="25" as="geometry" />
        </mxCell>
        <mxCell id="Kc346eFX7LDRFWcVNTVt-169" value="Phone" style="ellipse;whiteSpace=wrap;html=1;align=center;" parent="1" vertex="1">
          <mxGeometry x="285" y="730" width="75" height="30" as="geometry" />
        </mxCell>
        <mxCell id="Kc346eFX7LDRFWcVNTVt-170" value="" style="endArrow=none;html=1;rounded=0;exitX=0;exitY=1;exitDx=0;exitDy=0;entryX=1;entryY=0.5;entryDx=0;entryDy=0;" parent="1" source="Kc346eFX7LDRFWcVNTVt-168" target="Kc346eFX7LDRFWcVNTVt-165" edge="1">
          <mxGeometry relative="1" as="geometry">
            <mxPoint x="383.5" y="847.5" as="sourcePoint" />
            <mxPoint x="441.3699999999974" y="777.5" as="targetPoint" />
          </mxGeometry>
        </mxCell>
        <mxCell id="Kc346eFX7LDRFWcVNTVt-171" value="" style="endArrow=none;html=1;rounded=0;entryX=0.957;entryY=0.732;entryDx=0;entryDy=0;entryPerimeter=0;exitX=0;exitY=0;exitDx=0;exitDy=0;" parent="1" source="Kc346eFX7LDRFWcVNTVt-167" target="Kc346eFX7LDRFWcVNTVt-165" edge="1">
          <mxGeometry relative="1" as="geometry">
            <mxPoint x="350" y="808" as="sourcePoint" />
            <mxPoint x="227" y="800" as="targetPoint" />
          </mxGeometry>
        </mxCell>
        <mxCell id="Kc346eFX7LDRFWcVNTVt-172" value="" style="endArrow=none;html=1;rounded=0;exitX=0.252;exitY=0.949;exitDx=0;exitDy=0;exitPerimeter=0;entryX=1;entryY=0;entryDx=0;entryDy=0;" parent="1" source="Kc346eFX7LDRFWcVNTVt-169" target="Kc346eFX7LDRFWcVNTVt-165" edge="1">
          <mxGeometry relative="1" as="geometry">
            <mxPoint x="1259" y="361" as="sourcePoint" />
            <mxPoint x="250" y="750" as="targetPoint" />
          </mxGeometry>
        </mxCell>
        <mxCell id="Kc346eFX7LDRFWcVNTVt-173" value="Contact" style="ellipse;whiteSpace=wrap;html=1;align=center;" parent="1" vertex="1">
          <mxGeometry x="987.8699999999999" y="187" width="100" height="40" as="geometry" />
        </mxCell>
        <mxCell id="Kc346eFX7LDRFWcVNTVt-174" value="" style="endArrow=none;html=1;rounded=0;entryX=0.75;entryY=0;entryDx=0;entryDy=0;exitX=0.5;exitY=1;exitDx=0;exitDy=0;" parent="1" source="Kc346eFX7LDRFWcVNTVt-173" target="Kc346eFX7LDRFWcVNTVt-2" edge="1">
          <mxGeometry relative="1" as="geometry">
            <mxPoint x="1200" y="320" as="sourcePoint" />
            <mxPoint x="1073" y="270" as="targetPoint" />
          </mxGeometry>
        </mxCell>
        <mxCell id="Kc346eFX7LDRFWcVNTVt-175" value="Email" style="ellipse;whiteSpace=wrap;html=1;align=center;" parent="1" vertex="1">
          <mxGeometry x="1052.5" y="127.5" width="75" height="25" as="geometry" />
        </mxCell>
        <mxCell id="Kc346eFX7LDRFWcVNTVt-176" value="Address&amp;nbsp;" style="ellipse;whiteSpace=wrap;html=1;align=center;" parent="1" vertex="1">
          <mxGeometry x="930" y="130" width="75" height="25" as="geometry" />
        </mxCell>
        <mxCell id="Kc346eFX7LDRFWcVNTVt-177" value="Phone" style="ellipse;whiteSpace=wrap;html=1;align=center;" parent="1" vertex="1">
          <mxGeometry x="990" y="97.5" width="75" height="30" as="geometry" />
        </mxCell>
        <mxCell id="Kc346eFX7LDRFWcVNTVt-178" value="" style="endArrow=none;html=1;rounded=0;exitX=1;exitY=1;exitDx=0;exitDy=0;entryX=0;entryY=0;entryDx=0;entryDy=0;" parent="1" source="Kc346eFX7LDRFWcVNTVt-176" target="Kc346eFX7LDRFWcVNTVt-173" edge="1">
          <mxGeometry relative="1" as="geometry">
            <mxPoint x="930" y="240" as="sourcePoint" />
            <mxPoint x="1090" y="240" as="targetPoint" />
          </mxGeometry>
        </mxCell>
        <mxCell id="Kc346eFX7LDRFWcVNTVt-179" value="" style="endArrow=none;html=1;rounded=0;exitX=0.5;exitY=1;exitDx=0;exitDy=0;entryX=1;entryY=0;entryDx=0;entryDy=0;" parent="1" source="Kc346eFX7LDRFWcVNTVt-175" target="Kc346eFX7LDRFWcVNTVt-173" edge="1">
          <mxGeometry relative="1" as="geometry">
            <mxPoint x="949" y="161" as="sourcePoint" />
            <mxPoint x="998" y="180" as="targetPoint" />
          </mxGeometry>
        </mxCell>
        <mxCell id="Kc346eFX7LDRFWcVNTVt-180" value="" style="endArrow=none;html=1;rounded=0;exitX=0.613;exitY=0.917;exitDx=0;exitDy=0;entryX=0.5;entryY=0;entryDx=0;entryDy=0;exitPerimeter=0;" parent="1" source="Kc346eFX7LDRFWcVNTVt-177" target="Kc346eFX7LDRFWcVNTVt-173" edge="1">
          <mxGeometry relative="1" as="geometry">
            <mxPoint x="959" y="171" as="sourcePoint" />
            <mxPoint x="1008" y="190" as="targetPoint" />
          </mxGeometry>
        </mxCell>
        <mxCell id="Kc346eFX7LDRFWcVNTVt-181" value="Picture" style="ellipse;whiteSpace=wrap;html=1;align=center;" parent="1" vertex="1">
          <mxGeometry x="1020" y="380" width="100" height="40" as="geometry" />
        </mxCell>
        <mxCell id="Kc346eFX7LDRFWcVNTVt-182" value="" style="endArrow=none;html=1;rounded=0;exitX=0.872;exitY=0.989;exitDx=0;exitDy=0;exitPerimeter=0;entryX=0;entryY=0;entryDx=0;entryDy=0;" parent="1" source="Kc346eFX7LDRFWcVNTVt-2" target="Kc346eFX7LDRFWcVNTVt-181" edge="1">
          <mxGeometry relative="1" as="geometry">
            <mxPoint x="1080" y="350" as="sourcePoint" />
            <mxPoint x="1240" y="350" as="targetPoint" />
          </mxGeometry>
        </mxCell>
        <mxCell id="Kc346eFX7LDRFWcVNTVt-183" value="Belong" style="shape=rhombus;perimeter=rhombusPerimeter;whiteSpace=wrap;html=1;align=center;" parent="1" vertex="1">
          <mxGeometry x="104.25" y="546" width="85.75" height="44" as="geometry" />
        </mxCell>
        <mxCell id="Kc346eFX7LDRFWcVNTVt-184" value="" style="shape=link;html=1;rounded=0;exitX=1;exitY=0.5;exitDx=0;exitDy=0;entryX=0;entryY=0.5;entryDx=0;entryDy=0;" parent="1" source="Kc346eFX7LDRFWcVNTVt-183" target="Kc346eFX7LDRFWcVNTVt-41" edge="1">
          <mxGeometry relative="1" as="geometry">
            <mxPoint x="220" y="440" as="sourcePoint" />
            <mxPoint x="380" y="440" as="targetPoint" />
          </mxGeometry>
        </mxCell>
        <mxCell id="Kc346eFX7LDRFWcVNTVt-185" value="&amp;nbsp;N&amp;nbsp;" style="edgeLabel;html=1;align=center;verticalAlign=middle;resizable=0;points=[];" parent="Kc346eFX7LDRFWcVNTVt-184" vertex="1" connectable="0">
          <mxGeometry x="-0.076" y="1" relative="1" as="geometry">
            <mxPoint as="offset" />
          </mxGeometry>
        </mxCell>
        <mxCell id="Kc346eFX7LDRFWcVNTVt-186" value="" style="endArrow=none;html=1;rounded=0;exitX=1;exitY=0.25;exitDx=0;exitDy=0;entryX=0;entryY=0.5;entryDx=0;entryDy=0;" parent="1" source="Kc346eFX7LDRFWcVNTVt-4" target="Kc346eFX7LDRFWcVNTVt-183" edge="1">
          <mxGeometry relative="1" as="geometry">
            <mxPoint x="220" y="440" as="sourcePoint" />
            <mxPoint x="380" y="440" as="targetPoint" />
          </mxGeometry>
        </mxCell>
        <mxCell id="Kc346eFX7LDRFWcVNTVt-187" value="&amp;nbsp;1&amp;nbsp;" style="edgeLabel;html=1;align=center;verticalAlign=middle;resizable=0;points=[];" parent="Kc346eFX7LDRFWcVNTVt-186" vertex="1" connectable="0">
          <mxGeometry x="-0.0515" y="1" relative="1" as="geometry">
            <mxPoint as="offset" />
          </mxGeometry>
        </mxCell>
        <mxCell id="Kc346eFX7LDRFWcVNTVt-188" value="Place" style="ellipse;whiteSpace=wrap;html=1;align=center;" parent="1" vertex="1">
          <mxGeometry x="618.04" y="110" width="70" height="30" as="geometry" />
        </mxCell>
        <mxCell id="Kc346eFX7LDRFWcVNTVt-189" value="" style="endArrow=none;html=1;rounded=0;exitX=0;exitY=1;exitDx=0;exitDy=0;entryX=1;entryY=0;entryDx=0;entryDy=0;" parent="1" source="Kc346eFX7LDRFWcVNTVt-188" target="Kc346eFX7LDRFWcVNTVt-5" edge="1">
          <mxGeometry relative="1" as="geometry">
            <mxPoint x="460" y="270" as="sourcePoint" />
            <mxPoint x="620" y="270" as="targetPoint" />
          </mxGeometry>
        </mxCell>
        <mxCell id="picvw7iT0pPr-Mud9RER-1" value="National_ID" style="ellipse;whiteSpace=wrap;html=1;align=center;" parent="1" vertex="1">
          <mxGeometry x="190" y="690" width="90" height="30" as="geometry" />
        </mxCell>
        <mxCell id="picvw7iT0pPr-Mud9RER-2" value="Picture" style="ellipse;whiteSpace=wrap;html=1;align=center;" parent="1" vertex="1">
          <mxGeometry x="109" y="780" width="100" height="40" as="geometry" />
        </mxCell>
        <mxCell id="picvw7iT0pPr-Mud9RER-3" value="" style="endArrow=none;html=1;rounded=0;exitX=0.5;exitY=1;exitDx=0;exitDy=0;entryX=0;entryY=0;entryDx=0;entryDy=0;jumpStyle=arc;jumpSize=10;" parent="1" source="Kc346eFX7LDRFWcVNTVt-33" target="picvw7iT0pPr-Mud9RER-2" edge="1">
          <mxGeometry relative="1" as="geometry">
            <mxPoint x="66" y="750" as="sourcePoint" />
            <mxPoint x="329" y="750" as="targetPoint" />
          </mxGeometry>
        </mxCell>
      </root>
    </mxGraphModel>
  </diagram>
</mxfile>
